# xmcd
#
# Track frame offsets: 
#        150
#        49183
#        99127
#        129069
#        168344
#        197046
#
# Disc length: 3233 seconds
#
# Revision: 2
# Processed by: cddbd v1.5.2PL0 Copyright (c) Steve Scherf et al.
# Submitted via: ExactAudioCopy v0.99pb5
#
DISCID=400c9f06
DTITLE=Sisters In Jazz - Sisters In Jazz
DYEAR=2016
DGENRE=Jazz
TTITLE0=Flugmodus
TTITLE1=The Train
TTITLE2=Waves
TTITLE3=Herr Doktor Doktor
TTITLE4=Emerald Eyes
TTITLE5=If I Could See You
EXTD=YEAR: 2016
EXTT0=
EXTT1=
EXTT2=
EXTT3=
EXTT4=
EXTT5=
PLAYORDER=
